<svg xmlns="http://www.w3.org/2000/svg" viewBox="0 0 666 110"><defs><style>.cls-1{fill:#a87c4f;}.cls-1,.cls-4{stroke:#754c28;}.cls-1,.cls-2,.cls-4,.cls-6{stroke-miterlimit:10;}.cls-1,.cls-2{stroke-width:3px;}.cls-2{fill:#231f20;stroke:#231f20;}.cls-3{fill:#c1b49a;}.cls-4,.cls-6{fill:none;}.cls-5{fill:#8a5d3b;}.cls-6{stroke:#603813;stroke-linecap:round;stroke-width:6px;}.cls-7{font-size:64.99px;fill:#603813;font-family:Rubik-Regular, Rubik;}.cls-8{font-size:60.14px;fill:#227373;font-family:MyriadPro-Regular, Myriad Pro;}.cls-9{letter-spacing:-0.02em;}.cls-10{letter-spacing:0em;}.cls-11{letter-spacing:-0.02em;}</style></defs><g id="Layer_2" data-name="Layer 2"><g id="Layer_1-2" data-name="Layer 1"><path class="cls-1" d="M0,0Z"/><path class="cls-2" d="M0,0Z"/><path class="cls-2" d="M0,0Z"/><path class="cls-3" d="M0,0Z"/><path class="cls-3" d="M0,0Z"/><polyline class="cls-4" points="58 46 55 47 51 47"/><polyline class="cls-4" points="59 52 56 53 52 53"/><polyline class="cls-4" points="68 51 65 53 59 54"/><polyline class="cls-4" points="67 49 64 51 61 51"/><polyline class="cls-4" points="67 46 63 48 60 49 57 50 51 50"/><path class="cls-5" d="M0,0Z"/><text/><path class="cls-6" d="M0,0H0"/><text class="cls-7" transform="matrix(0.99, 0, -0.14, 0.99, 150.8, 82.57)">prytna</text><text class="cls-8" transform="translate(368 81)"><tspan class="cls-9">V</tspan><tspan class="cls-10" x="33" y="0">ideo </tspan><tspan class="cls-11" x="156" y="0">P</tspan><tspan x="187" y="0">oker</tspan></text></g></g></svg>