<?xml version="1.0" encoding="utf-8"?>
<!-- Generator: Adobe Illustrator 25.0.0, SVG Export Plug-In . SVG Version: 6.00 Build 0)  -->
<svg version="1.1" xmlns="http://www.w3.org/2000/svg" xmlns:xlink="http://www.w3.org/1999/xlink" x="0px" y="0px"
	 viewBox="0 0 120 200" style="enable-background:new 0 0 120 200;" xml:space="preserve">
<style type="text/css">
	.st0{fill:#ED1C24;}
	.st1{font-family:'Baskerville';}
	.st2{font-size:44.1475px;}
	.st3{letter-spacing:-4;}
	.st4{fill:#FF1D25;stroke:#FF1D25;stroke-miterlimit:10;}
</style>
<g id="Layer_1">
	<text transform="matrix(1 0 0 1 2.9478 37.521)"><tspan x="0" y="0" class="st0 st1 st2 st3">1</tspan><tspan x="17.7" y="0" class="st0 st1 st2">0</tspan></text>
	<g>
		<path class="st4" d="M80.3,83.5c-14.1,0.6-20.4,14.6-20.4,14.6v93.4c0,0,3.2-21.5,21.6-45.9c7.2-9.5,16.4-12.8,18.9-34.8
			C102.1,96,94.4,82.9,80.3,83.5z"/>
		<path class="st4" d="M39.5,83.9c-14.1-0.6-21.8,12.5-20.1,27.2c2.5,22,11.7,25.3,18.9,34.8c18.4,24.4,21.6,45.9,21.6,45.9V98.6
			C59.8,98.6,53.6,84.5,39.5,83.9z"/>
	</g>
	<g>
		<path class="st4" d="M30.3,42.6c-5.2,0.2-7.5,5.4-7.5,5.4v34.3c0,0,1.2-7.9,7.9-16.9c2.6-3.5,6-4.7,6.9-12.8
			C38.3,47.2,35.5,42.3,30.3,42.6z"/>
		<path class="st4" d="M15.3,42.7c-5.2-0.2-8,4.6-7.4,10c0.9,8.1,4.3,9.3,6.9,12.8c6.8,9,7.9,16.9,7.9,16.9V48.1
			C22.8,48.1,20.5,42.9,15.3,42.7z"/>
	</g>
</g>
<g id="Layer_2">
</g>
</svg>
