<?xml version="1.0" encoding="utf-8"?>
<!-- Generator: Adobe Illustrator 25.0.0, SVG Export Plug-In . SVG Version: 6.00 Build 0)  -->
<svg version="1.1" xmlns="http://www.w3.org/2000/svg" xmlns:xlink="http://www.w3.org/1999/xlink" x="0px" y="0px"
	 viewBox="0 0 120 200" style="enable-background:new 0 0 120 200;" xml:space="preserve">
<style type="text/css">
	.st0{font-family:'Baskerville';}
	.st1{font-size:43.3537px;}
	.st2{stroke:#000000;stroke-miterlimit:10;}
</style>
<g id="Layer_1">
	<text transform="matrix(1 0 0 1 12.2988 37.0771)" class="st0 st1">4</text>
	<path class="st2" d="M81.7,120.5c0.9-2.9,1.3-5.9,1.3-9.1C83.1,96.3,72.7,84,59.9,84s-23.2,12.3-23.2,27.4c0,3.4,0.5,6.6,1.5,9.6
		c-11.6,2.4-20.3,12.2-20.3,23.9c0,13.5,11.6,24.5,25.9,24.5c2.2,0,4.3-0.3,6.4-0.8l-3.9,11.8c-1.5,4.5,0.4,10.1,3.4,10.1h10.4h0.1
		h10.4c3,0,4.8-5.6,3.4-10.1l-4-12.2c2,0.5,4,0.7,6.2,0.7c14.3,0,25.9-11,25.9-24.5C102.1,132.8,93.4,123,81.7,120.5z"/>
	<path class="st2" d="M30.7,56.7c0.3-1,0.5-2.1,0.5-3.3c0-5.5-3.7-9.9-8.4-9.9s-8.4,4.4-8.4,9.9c0,1.2,0.2,2.4,0.5,3.5
		c-4.2,0.9-7.3,4.4-7.3,8.6c0,4.9,4.2,8.9,9.4,8.9c0.8,0,1.6-0.1,2.3-0.3l-1.4,4.2C17.3,80,18,82,19.1,82h3.8h0h3.8
		c1.1,0,1.8-2,1.2-3.6L26.4,74c0.7,0.2,1.5,0.3,2.2,0.3c5.2,0,9.4-4,9.4-8.9C38,61.2,34.9,57.6,30.7,56.7z"/>
</g>
<g id="Layer_2">
</g>
</svg>
