<?xml version="1.0" encoding="utf-8"?>
<!-- Generator: Adobe Illustrator 25.0.0, SVG Export Plug-In . SVG Version: 6.00 Build 0)  -->
<svg version="1.1" xmlns="http://www.w3.org/2000/svg" xmlns:xlink="http://www.w3.org/1999/xlink" x="0px" y="0px"
	 viewBox="0 0 120 200" style="enable-background:new 0 0 120 200;" xml:space="preserve">
<style type="text/css">
	.st0{fill:#ED1C24;}
	.st1{font-family:'Baskerville';}
	.st2{font-size:44.1475px;}
	.st3{fill:#FF1D25;stroke:#FF1D25;stroke-miterlimit:10;}
</style>
<g id="Layer_1">
	<text transform="matrix(1 0 0 1 11.9478 37.521)" class="st0 st1 st2">5</text>
	<path class="st3" d="M99.3,139.9l-34.7,48.7c-2,2.8-6.3,2.8-8.3,0l-34.7-48.7c-1.3-1.8-1.3-4.1,0-5.9l34.7-48.7
		c2-2.8,6.3-2.8,8.3,0L99.3,134C100.6,135.8,100.6,138.1,99.3,139.9z"/>
	<path class="st3" d="M36.6,64L24,81.7c-0.7,1-2.3,1-3,0L8.4,64c-0.5-0.6-0.5-1.5,0-2.1L21,44.2c0.7-1,2.3-1,3,0l12.6,17.7
		C37.1,62.5,37.1,63.4,36.6,64z"/>
</g>
<g id="Layer_2">
</g>
</svg>
