<?xml version="1.0" encoding="utf-8"?>
<!-- Generator: Adobe Illustrator 25.0.0, SVG Export Plug-In . SVG Version: 6.00 Build 0)  -->
<svg version="1.1" xmlns="http://www.w3.org/2000/svg" xmlns:xlink="http://www.w3.org/1999/xlink" x="0px" y="0px"
	 viewBox="0 0 120 200" style="enable-background:new 0 0 120 200;" xml:space="preserve">
<style type="text/css">
	.st0{font-family:'Baskerville';}
	.st1{font-size:45.7246px;}
	.st2{stroke:#000000;stroke-miterlimit:10;}
</style>
<g id="Layer_1">
	<text transform="matrix(1 0 0 1 5.2982 38.0537)" class="st0 st1">K</text>
	<path class="st2" d="M100,147.9c-2.5-17.4-11.5-20-18.6-27.6C63.3,101.1,60.2,84,60.2,84v72.9h-0.1h0V84.4c0,0-3.1,17-21.2,36.3
		c-7.1,7.6-16.1,10.1-18.6,27.6c-1.7,11.6,5.9,22,19.8,21.5c4.3-0.1,7.9-1.3,10.7-2.8l-4.5,13.6c-1.5,4.5,0.4,10,3.3,10H60h0.1h10.4
		c3,0,4.8-5.6,3.3-10l-4.7-14.1c2.9,1.6,6.6,2.9,11.1,3C94.1,169.9,101.7,159.6,100,147.9z"/>
	<path class="st2" d="M37.2,66.6c-0.9-6.3-4.2-7.2-6.7-10c-6.5-7-7.7-13.1-7.7-13.1v26.3h0h0V43.7c0,0-1.1,6.1-7.7,13.1
		c-2.6,2.7-5.8,3.7-6.7,10c-0.6,4.2,2.1,8,7.2,7.8c1.6-0.1,2.8-0.5,3.9-1l-1.6,4.9C17.3,80,17.9,82,19,82h3.7h0h3.7
		c1.1,0,1.7-2,1.2-3.6l-1.7-5.1c1.1,0.6,2.4,1,4,1.1C35.1,74.6,37.8,70.8,37.2,66.6z"/>
</g>
<g id="Layer_2">
</g>
</svg>
